HIERARCHY
ROOT Hips
{
    OFFSET 0.000000 0.000000 0.000000
    CHANNELS 6 Xposition Yposition Zposition Zrotation Xrotation Yrotation
    JOINT Spine
    {
        OFFSET -0.000000 14.517291 0.000000
        CHANNELS 3 Zrotation Xrotation Yrotation
        JOINT Spine1
        {
            OFFSET -0.000000 37.558300 0.000000
            CHANNELS 3 Zrotation Xrotation Yrotation
            JOINT Neck
            {
                OFFSET -0.000000 37.404057 3.400369
                CHANNELS 3 Zrotation Xrotation Yrotation
                JOINT Head
                {
                    OFFSET -0.000000 24.785618 -3.540803
                    CHANNELS 3 Zrotation Xrotation Yrotation
                    End Site
                    {
                        OFFSET -0.000000 35.408028 0.000000
                    }
                }
            }
            JOINT LeftShoulder
            {
                OFFSET 6.992933 33.973492 -0.192664
                CHANNELS 3 Zrotation Xrotation Yrotation
                JOINT LeftArm
                {
                    OFFSET 21.527611 0.000000 0.000000
                    CHANNELS 3 Zrotation Xrotation Yrotation
                    JOINT LeftForeArm
                    {
                        OFFSET 56.353916 0.000000 0.000000
                        CHANNELS 3 Zrotation Xrotation Yrotation
                        JOINT LeftHand
                        {
                            OFFSET 47.774071 0.000000 0.000000
                            CHANNELS 3 Zrotation Xrotation Yrotation
                            End Site
                            {
                                OFFSET 26.556021 0.000000 0.000000
                            }
                        }
                    }
                }
            }
            JOINT RightShoulder
            {
                OFFSET -7.065357 33.973492 -0.192664
                CHANNELS 3 Zrotation Xrotation Yrotation
                JOINT RightArm
                {
                    OFFSET -21.527611 0.000000 0.000000
                    CHANNELS 3 Zrotation Xrotation Yrotation
                    JOINT RightForeArm
                    {
                        OFFSET -56.353916 0.000000 0.000000
                        CHANNELS 3 Zrotation Xrotation Yrotation
                        JOINT RightHand
                        {
                            OFFSET -47.774071 0.000000 0.000000
                            CHANNELS 3 Zrotation Xrotation Yrotation
                            End Site
                            {
                                OFFSET -26.556021 0.000000 0.000000
                            }
                        }
                    }
                }
            }
        }
    }
    JOINT LeftUpLeg
    {
        OFFSET 17.704014 0.000000 0.000000
        CHANNELS 3 Zrotation Xrotation Yrotation
        JOINT LeftLeg
        {
            OFFSET -0.000000 -81.181816 0.000000
            CHANNELS 3 Zrotation Xrotation Yrotation
            JOINT LeftFoot
            {
                OFFSET -0.000000 -62.821102 0.000000
                CHANNELS 3 Zrotation Xrotation Yrotation
                JOINT LeftToeBase
                {
                    OFFSET -0.000000 -11.507608 26.556021
                    CHANNELS 3 Zrotation Xrotation Yrotation
                    End Site
                    {
                        OFFSET -0.000000 0.000000 7.081605
                    }
                }
            }
        }
    }
    JOINT RightUpLeg
    {
        OFFSET -17.704014 0.000000 0.000000
        CHANNELS 3 Zrotation Xrotation Yrotation
        JOINT RightLeg
        {
            OFFSET -0.000000 -81.181816 0.000000
            CHANNELS 3 Zrotation Xrotation Yrotation
            JOINT RightFoot
            {
                OFFSET -0.000000 -62.821102 0.000000
                CHANNELS 3 Zrotation Xrotation Yrotation
                JOINT RightToeBase
                {
                    OFFSET -0.000000 -11.507608 26.556021
                    CHANNELS 3 Zrotation Xrotation Yrotation
                    End Site
                    {
                        OFFSET -0.000000 0.000000 7.081605
                    }
                }
            }
        }
    }
}
MOTION
Frames:    8
Frame Time:    0.008333
24.439281    156.407745    -35.015392    1.781818    -0.805066    -46.610939    3.432924    -2.607438    8.144164    -0.078107    6.004515    2.691049    17.355339    -8.011957    13.736723    -12.379390    13.622533    10.199541    9.551639    1.479622    -23.086664    -15.440752    -17.942463    -47.828110    11.701899    -38.891914    -27.894804    -27.930248    -26.794781    -43.926678    -9.661077    5.408681    7.143130    33.950420    21.909470    100.715607    -5.905604    -48.123753    92.486801    16.139671    -41.360260    23.359989    17.439211    -18.452312    5.148962    -11.629176    18.136772    -2.934106    -8.552106    -0.426666    38.428478    0.000000    0.000000    0.000000    -16.234419    0.706503    -5.363705    6.777156    27.274994    -2.284883    5.331119    -21.357109    -16.544802    0.000000    0.000000    0.000000    
24.439045    156.405899    -35.015804    1.783163    -0.801539    -46.591660    3.464311    -2.592773    8.078821    -0.128156    5.987983    2.671797    17.323992    -7.994549    13.754209    -12.317611    13.575714    10.223715    9.535681    1.473314    -23.001781    -15.437395    -17.949738    -47.790501    11.649468    -38.874130    -27.920189    -27.927206    -26.792278    -43.898270    -9.690482    5.366560    7.164894    34.003895    21.904930    100.629120    -5.975173    -48.072453    92.436882    16.271408    -41.227341    23.392105    17.437916    -18.456854    5.120522    -11.638824    18.120111    -2.914408    -8.542992    -0.414556    38.421082    0.000000    0.000000    0.000000    -16.230904    0.711656    -5.383768    6.776914    27.273350    -2.293229    5.327672    -21.355976    -16.551443    0.000000    0.000000    0.000000    
24.441599    156.403336    -35.018410    1.785874    -0.792935    -46.571228    3.503061    -2.576654    8.010027    -0.187182    5.967096    2.651831    17.295727    -7.972405    13.760996    -12.259521    13.520966    10.235764    9.512666    1.451994    -22.905380    -15.408494    -17.912754    -47.756580    11.627463    -38.884254    -27.914095    -27.937757    -26.804277    -43.902203    -9.724288    5.336223    7.192029    34.068851    21.882748    100.534225    -6.086258    -48.029163    92.352295    16.438124    -41.063282    23.463316    17.440022    -18.473984    5.116218    -11.639321    18.120365    -2.928072    -8.540383    -0.407693    38.423836    0.000000    0.000000    0.000000    -16.224583    0.708607    -5.382167    6.786050    27.277021    -2.314611    5.323284    -21.359724    -16.555977    0.000000    0.000000    0.000000    
24.438576    156.402237    -35.015179    1.786728    -0.792307    -46.558685    3.552517    -2.557633    7.925138    -0.266994    5.948113    2.627491    17.265051    -7.952474    13.786290    -12.192699    13.479973    10.269194    9.482704    1.435135    -22.772757    -15.373078    -17.861103    -47.727398    11.634007    -38.877773    -27.884720    -27.935101    -26.801348    -43.894054    -9.767001    5.306129    7.257657    34.153431    21.850399    100.422546    -6.163792    -47.972702    92.281677    16.529360    -40.924061    23.512068    17.434029    -18.474041    5.136489    -11.629194    18.115492    -2.929129    -8.537144    -0.401460    38.402588    0.000000    0.000000    0.000000    -16.224592    0.713590    -5.380588    6.790380    27.278332    -2.298636    5.315102    -21.361092    -16.587425    0.000000    0.000000    0.000000    
24.442097    156.401077    -35.015148    1.791457    -0.798836    -46.539898    3.598982    -2.526287    7.833693    -0.358814    5.916971    2.601702    17.198795    -7.959396    13.793648    -12.056518    13.471206    10.292892    9.450493    1.420091    -22.646069    -15.312326    -17.798315    -47.692451    11.650117    -38.900288    -27.843170    -27.926802    -26.834002    -43.881718    -9.792630    5.277978    7.329796    34.200642    21.803638    100.307877    -6.217855    -47.946911    92.220078    16.665714    -40.824226    23.610106    17.415382    -18.473993    5.142261    -11.615890    18.105219    -2.940168    -8.545900    -0.392962    38.389172    0.000000    0.000000    0.000000    -16.233730    0.712898    -5.359766    6.807774    27.293499    -2.319500    5.314758    -21.369776    -16.607000    0.000000    0.000000    0.000000    
24.442217    156.398224    -35.018875    1.797822    -0.791588    -46.529144    3.646005    -2.518808    7.763161    -0.436832    5.907591    2.581947    17.119965    -7.974020    13.792368    -11.908058    13.451980    10.308420    9.430857    1.395615    -22.522270    -15.251358    -17.711823    -47.675274    11.681521    -38.982529    -27.794636    -27.922812    -26.931210    -43.867474    -9.829994    5.253737    7.364694    34.271393    21.738539    100.199120    -6.184288    -47.887188    92.215622    16.660851    -40.780567    23.643702    17.419674    -18.485044    5.148014    -11.620791    18.102444    -2.951552    -8.535795    -0.387460    38.389351    0.000000    0.000000    0.000000    -16.229374    0.702570    -5.355669    6.811045    27.301699    -2.332480    5.319777    -21.383429    -16.611277    0.000000    0.000000    0.000000    
24.440813    156.398651    -35.013275    1.797966    -0.800937    -46.518276    3.688998    -2.493494    7.680729    -0.520959    5.888408    2.558684    17.084505    -7.977124    13.813571    -11.828077    13.445123    10.339245    9.403893    1.375969    -22.385368    -15.227901    -17.679663    -47.673485    11.659789    -39.007469    -27.766483    -27.925900    -26.971989    -43.845188    -9.846313    5.240343    7.420740    34.347996    21.654675    100.064713    -6.080121    -47.772236    92.260307    16.606272    -40.736439    23.661493    17.405563    -18.474838    5.166596    -11.607804    18.093328    -2.975859    -8.545608    -0.383271    38.386250    0.000000    0.000000    0.000000    -16.237803    0.713929    -5.340367    6.825480    27.300671    -2.325190    5.304681    -21.381008    -16.652073    0.000000    0.000000    0.000000    
24.439543    156.399231    -35.013954    1.798367    -0.800111    -46.510792    3.743631    -2.465079    7.588478    -0.606441    5.854876    2.532130    16.998165    -7.983319    13.823270    -11.681636    13.440151    10.370777    9.358340    1.353724    -22.223837    -15.163928    -17.590912    -47.657780    11.673882    -39.061081    -27.732327    -27.937204    -27.028591    -43.847897    -9.868383    5.209408    7.483593    34.397598    21.618530    99.906067    -6.253685    -47.757763    92.049667    17.462942    -40.420185    23.995560    17.403490    -18.474634    5.181346    -11.598592    18.089697    -3.002488    -8.536305    -0.374799    38.382881    0.000000    0.000000    0.000000    -16.231188    0.710044    -5.328199    6.820085    27.309689    -2.361625    5.328560    -21.383829    -16.626194    0.000000    0.000000    0.000000    
